Coordinates
version=1
nRows=11
nColumns=40
inDegrees=yes

Units are S.I. units (second, meters, Newtons, ...)
Angles are in degrees.

endheader
time	pelvis_tilt	pelvis_list	pelvis_rotation	pelvis_tx	pelvis_ty	pelvis_tz	hip_flexion_r	hip_adduction_r	hip_rotation_r	knee_angle_r	knee_angle_r_beta	ankle_angle_r	subtalar_angle_r	mtp_angle_r	hip_flexion_l	hip_adduction_l	hip_rotation_l	knee_angle_l	knee_angle_l_beta	ankle_angle_l	subtalar_angle_l	mtp_angle_l	lumbar_extension	lumbar_bending	lumbar_rotation	arm_flex_r	arm_add_r	arm_rot_r	elbow_flex_r	pro_sup_r	wrist_flex_r	wrist_dev_r	arm_flex_l	arm_add_l	arm_rot_l	elbow_flex_l	pro_sup_l	wrist_flex_l	wrist_dev_l
     10.33000000	      4.16675403	     25.71861270	     88.41598804	      0.47114404	      1.03190919	     -0.95186965	     -9.71784329	     -1.39405156	     -2.96000652	     22.95861262	      0.40070338	     12.29425153	      0.00000000	      0.00000000	    -29.48959932	      4.12019348	     -6.04494586	      0.23570224	      0.00411378	     11.14525059	      0.00000000	      0.00000000	    -39.79582887	     -4.99065426	     -4.06891191	      2.89035135	     -6.76538753	     -7.16239708	     31.25737640	     88.65671735	      0.00000000	      0.00000000	      1.75429542	    -12.37486295	      3.13052165	     31.74778787	     88.41989950	      0.00000000	      0.00000000
     10.34000000	      4.06818909	     25.69426644	     88.61263759	      0.47135456	      1.03177505	     -0.95304003	    -10.37156470	     -1.59247563	     -3.33629715	     23.14844751	      0.40401663	     12.75312095	      0.00000000	      0.00000000	    -29.52730503	      4.10686467	     -5.93899065	      0.23793451	      0.00415274	     11.21398107	      0.00000000	      0.00000000	    -39.52701684	     -5.09649660	     -3.93078163	      2.77050607	     -6.70396223	     -7.31569151	     31.07878707	     88.64442058	      0.00000000	      0.00000000	      1.67296894	    -12.32774913	      3.05822885	     31.62641420	     88.41037365	      0.00000000	      0.00000000
     10.35000000	      3.95284260	     25.65986907	     88.74786724	      0.47173173	      1.03168917	     -0.95380816	    -10.92845802	     -1.80699111	     -3.57307496	     23.44632058	      0.40921549	     13.08185790	      0.00000000	      0.00000000	    -29.52865072	      4.13259627	     -5.92432803	      0.23942038	      0.00417867	     11.25286383	      0.00000000	      0.00000000	    -39.30084826	     -5.25312533	     -3.75642121	      2.73062997	     -6.61677273	     -7.53066253	     30.90436095	     88.65851021	      0.00000000	      0.00000000	      1.62242117	    -12.31173369	      3.03767057	     31.57787846	     88.46084900	      0.00000000	      0.00000000
     10.36000000	      3.96051760	     25.63302933	     88.81759875	      0.47228024	      1.03165664	     -0.95488486	    -11.65905139	     -1.82326605	     -3.47594679	     23.46100402	      0.40947177	     13.63911783	      0.00000000	      0.00000000	    -29.56451786	      4.04056317	     -5.82969384	      0.23584897	      0.00411634	     11.06907822	      0.00000000	      0.00000000	    -39.01896905	     -5.33749967	     -3.45593629	      2.59327068	     -6.62139860	     -7.40660735	     30.81718125	     88.66453417	      0.00000000	      0.00000000	      1.62740519	    -12.26637427	      3.19476214	     31.36672974	     88.27157936	      0.00000000	      0.00000000
     10.37000000	      3.82935174	     25.62833489	     89.02722468	      0.47238442	      1.03159470	     -0.95594383	    -12.35530521	     -2.06820511	     -3.92311107	     23.58914702	      0.41170828	     13.37920213	      0.00000000	      0.00000000	    -29.60352975	      4.06442831	     -5.76258791	      0.24458697	      0.00426885	     11.28500514	      0.00000000	      0.00000000	    -38.81825521	     -5.46200151	     -3.35949714	      2.57440353	     -6.50576727	     -7.75585308	     30.61258987	     88.64686693	      0.00000000	      0.00000000	      1.52739773	    -12.15592939	      2.83061089	     31.33760878	     88.42704839	      0.00000000	      0.00000000
     10.38000000	      3.80267766	     25.57897976	     89.10786199	      0.47264159	      1.03143372	     -0.95703127	    -13.08428738	     -2.17332574	     -4.08904698	     23.51509035	      0.41041575	     13.73443763	      0.00000000	      0.00000000	    -29.62579830	      4.03147798	     -5.67507733	      0.24134513	      0.00421227	     11.35093070	      0.00000000	      0.00000000	    -38.54909960	     -5.54972736	     -3.05965349	      2.41520734	     -6.49496925	     -7.91633533	     30.66384342	     88.68192661	      0.00000000	      0.00000000	      1.49095500	    -12.02125609	      2.64403356	     31.18067759	     88.45186758	      0.00000000	      0.00000000
     10.39000000	      3.67212120	     25.53338016	     89.23179437	      0.47303152	      1.03126078	     -0.95817384	    -13.89601959	     -2.37468672	     -4.39773460	     23.29892963	      0.40664303	     14.18469557	      0.00000000	      0.00000000	    -29.64442269	      4.08232081	     -5.67139853	      0.24260662	      0.00423428	     11.44253413	      0.00000000	      0.00000000	    -38.26915346	     -5.73115179	     -2.92391499	      2.42094940	     -6.43743488	     -7.96349628	     30.41779063	     88.65613979	      0.00000000	      0.00000000	      1.32399551	    -11.98767979	      2.50759165	     31.20337804	     88.42345551	      0.00000000	      0.00000000
     10.40000000	      3.61425364	     25.48505123	     89.29226917	      0.47350374	      1.03111699	     -0.95937918	    -14.71043393	     -2.49410917	     -4.56785495	     23.05028342	      0.40230334	     14.46886106	      0.00000000	      0.00000000	    -29.65820706	      4.08196350	     -5.70625930	      0.24667424	      0.00430528	     11.44332416	      0.00000000	      0.00000000	    -37.98260618	     -5.87514066	     -2.66716112	      2.38200499	     -6.35892390	     -8.19626318	     30.25584917	     88.64770057	      0.00000000	      0.00000000	      1.20536345	    -11.88909832	      2.31637709	     31.12822081	     88.46177633	      0.00000000	      0.00000000
     10.41000000	      3.62204370	     25.44370100	     89.28030777	      0.47404252	      1.03098143	     -0.96027833	    -15.51315031	     -2.52095063	     -4.47027698	     22.75009353	      0.39706404	     14.74113843	      0.00000000	      0.00000000	    -29.67098552	      4.04684787	     -5.70673422	      0.24874945	      0.00434150	     11.47012363	      0.00000000	      0.00000000	    -37.76584783	     -5.98363356	     -2.25463914	      2.22971816	     -6.37133194	     -8.28296178	     30.42714579	     88.68346871	      0.00000000	      0.00000000	      1.21339997	    -11.78990295	      2.23857927	     30.99278674	     88.48291006	      0.00000000	      0.00000000
     10.42000000	      3.54811929	     25.40109878	     89.38324805	      0.47456581	      1.03078443	     -0.96142883	    -16.39259798	     -2.61934344	     -4.74471521	     22.32701726	      0.38967996	     15.18916156	      0.00000000	      0.00000000	    -29.68725933	      4.04573018	     -5.69123320	      0.25206498	      0.00439936	     11.55761856	      0.00000000	      0.00000000	    -37.50101183	     -6.12502513	     -2.02756433	      2.23777315	     -6.27172348	     -8.55216067	     30.23075308	     88.64752695	      0.00000000	      0.00000000	      1.09380319	    -11.72804263	      2.00344138	     30.91877734	     88.46933994	      0.00000000	      0.00000000
     10.43000000	      3.48572191	     25.35868268	     89.42009154	      0.47503071	      1.03050739	     -0.96249733	    -17.23950632	     -2.71796860	     -4.87280682	     21.91978493	      0.38257242	     15.56950539	      0.00000000	      0.00000000	    -29.70007563	      4.07228428	     -5.69791598	      0.25818675	      0.00450621	     11.59881948	      0.00000000	      0.00000000	    -37.24617166	     -6.26928476	     -1.75863835	      2.20237391	     -6.27692671	     -8.51480227	     30.21358073	     88.64406676	      0.00000000	      0.00000000	      0.98471056	    -11.63937236	      1.84387482	     30.83746578	     88.44976852	      0.00000000	      0.00000000
